<svg xmlns="http://www.w3.org/2000/svg" viewBox="0 0 468 468" id="stethoscope">
  <path fill="#ed4848" d="m305.675 247.745-11.402 1.967c-6.534 1.127-12.517-3.845-12.517-10.403v-40.761c0-26.923 24.561-47.336 51.387-42.708 5.113.882 8.845 5.271 8.845 10.403v38.794c0 21.068-15.32 39.087-36.313 42.708z"></path>
  <path fill="#cc4040" d="M298.91 239.309v-40.76c0-21.332 15.424-38.562 35.172-42.503-.307-.081-.62-.15-.939-.205-26.827-4.627-51.387 15.785-51.387 42.708v40.76c0 6.558 5.982 11.53 12.517 10.403l9.392-1.62c-2.842-1.879-4.755-5.077-4.755-8.783z"></path>
  <path fill="#ed4848" d="m411.08 247.745 11.402 1.967c6.534 1.127 12.517-3.845 12.517-10.403v-40.761c0-26.923-24.561-47.336-51.387-42.708-5.113.882-8.845 5.271-8.845 10.403v38.794c-.001 21.068 15.32 39.087 36.313 42.708z"></path>
  <path fill="#cc4040" d="M383.611 155.84c-.318.055-.631.124-.939.205 19.748 3.941 35.172 21.171 35.172 42.503v40.76c0 3.707-1.912 6.904-4.754 8.783l9.392 1.62c6.534 1.127 12.517-3.845 12.517-10.403v-40.76c0-26.923-24.561-47.335-51.388-42.708z"></path>
  <path fill="#e0e0e0" d="M387.947 264.8v133.501c0 14.813-12.09 26.866-26.95 26.866s-26.95-12.052-26.95-26.866v-37.779c0-29.268-23.836-53.081-53.135-53.081-29.298 0-53.135 23.812-53.135 53.081v47.663c0 16.989-13.862 30.81-30.9 30.81s-30.901-13.821-30.901-30.81V244.513c16.491-2.025 32.068-8.229 45.596-18.251 16.784-12.434 28.821-29.552 34.809-49.503l26.136-87.077c5.468-18.218 2.093-37.435-9.259-52.723-11.456-15.427-29.077-24.274-48.345-24.274h-30.262V36.69h30.262c11.612 0 22.223 5.319 29.11 14.595 6.784 9.136 8.803 20.612 5.538 31.488l-26.136 87.077c-9.083 30.261-37.635 51.395-69.434 51.395S93.64 200.111 84.558 169.85L58.422 82.773c-3.265-10.876-1.246-22.353 5.538-31.488C70.848 42.01 81.457 36.69 93.07 36.69h28.358V12.685H93.07c-19.268 0-36.889 8.847-48.345 24.275-11.352 15.287-14.727 34.504-9.259 52.722l26.136 87.077c5.988 19.951 18.025 37.069 34.809 49.503 13.528 10.022 29.104 16.226 45.596 18.251v163.673c0 30.225 24.615 54.814 54.871 54.814 30.256 0 54.871-24.59 54.871-54.814v-47.663c0-16.032 13.083-29.076 29.164-29.076 16.081 0 29.164 13.044 29.164 29.076v37.779c0 28.05 22.843 50.87 50.921 50.87s50.921-22.82 50.921-50.87V264.8h-23.972z"></path>
  <ellipse cx="399.932" cy="257.615" fill="#00aae5" rx="24.51" ry="24.368"></ellipse>
  <path fill="#00aae5" d="M120.074 43.691h-11.94c-10.493 0-19-8.507-19-19v-.007c0-10.493 8.507-19 19-19h11.94c10.493 0 19 8.507 19 19v.007c0 10.493-8.506 19-19 19zm79.775-.684h-11.94c-10.493 0-19-8.507-19-19V24c0-10.493 8.507-19 19-19h11.94c10.493 0 19 8.507 19 19v.007c0 10.494-8.507 19-19 19z"></path>
  <path fill="#333" d="M422.805 161.721c-11.096-9.345-25.689-13.284-40.044-10.808-7.53 1.3-12.995 7.747-12.995 15.33v3.642l-6.387-5.652V100.03a5 5 0 0 0-5.001-5 5 5 0 0 0-5.001 5v64.202l-6.386 5.652v-3.641c0-7.583-5.465-14.03-12.996-15.33-29.165-5.036-57.238 17.835-57.238 47.636v40.76c0 9.573 8.977 16.949 18.369 15.33 26.889-4.638 51.866-18.457 51.866-49.602v-21.798l11.387-10.077 11.388 10.078v21.797c0 11.447 4.025 22.054 10.848 30.406-6.237 5.388-10.192 13.326-10.192 22.172 0 9.903 4.956 18.67 12.524 23.993v116.694c0 12.057-9.846 21.866-21.949 21.866-12.102 0-21.949-9.81-21.949-21.866v-37.778c0-32.026-26.079-58.081-58.136-58.081s-58.136 26.055-58.136 58.081v47.663c0 14.231-11.618 25.81-25.899 25.81s-25.9-11.578-25.9-25.81v-159.35c37.609-6.323 69.237-34.139 80.194-70.64l26.136-87.078c12.039-40.111-18.119-81.767-59.81-83.36C213.109 2.993 206.82 0 199.844 0h-11.931c-13.237 0-24.006 10.767-24.006 24.008 0 13.233 10.769 23.999 24.006 23.999h11.931a23.911 23.911 0 0 0 16.177-6.286c19.886.676 34.52 20.396 28.75 39.614l-26.137 87.077c-8.453 28.163-35.035 47.832-64.644 47.832-29.608 0-56.191-19.669-64.643-47.832L63.212 81.335c-5.678-18.912 8.443-38.505 28.052-39.594 4.34 4.293 10.302 6.95 16.875 6.95h11.931c13.237 0 24.006-10.767 24.006-24.008 0-13.233-10.769-24-24.006-24h-11.931c-6.627 0-12.635 2.699-16.983 7.056-41.964 1.187-72.604 42.988-60.481 83.38l26.136 87.078c10.956 36.502 42.586 64.317 80.193 70.64v159.349c0 32.981 26.859 59.814 59.873 59.814 33.013 0 59.872-26.833 59.872-59.814v-47.663c0-13.275 10.839-24.076 24.163-24.076s24.163 10.801 24.163 24.076v37.778c0 30.807 25.086 55.87 55.922 55.87s55.922-25.063 55.922-55.87V281.607c7.568-5.322 12.524-14.09 12.524-23.993 0-1.199-.081-2.378-.222-3.54 6.289-2.046 10.778-8.126 10.778-14.766v-40.76c.001-14.202-6.266-27.625-17.194-36.827zm-85.818 43.316c0 26.139-21.536 35.948-43.564 39.748-3.375.576-6.666-2.002-6.666-5.477v-40.76c0-23.695 22.366-41.777 45.535-37.782 2.72.47 4.694 2.773 4.694 5.477v12.492l-22.655 20.048c-4.733 4.189 1.893 11.676 6.63 7.488l16.024-14.181v12.947zM199.844 38.007h-11.931c-7.722 0-14.003-6.28-14.003-14.007 0-7.72 6.282-14 14.003-14h11.931c7.721 0 14.003 6.28 14.003 14.008 0 7.719-6.282 13.999-14.003 13.999zm-91.705-27.323h11.931c7.722 0 14.003 6.28 14.003 14.008 0 7.72-6.282 14-14.003 14h-11.931c-7.722 0-14.003-6.28-14.003-14.008 0-7.72 6.282-14 14.003-14zm298.778 387.617c0 25.293-20.6 45.87-45.92 45.87-25.319 0-45.919-20.577-45.919-45.87v-37.778c0-18.79-15.327-34.076-34.165-34.076s-34.165 15.286-34.165 34.076v47.663c0 27.468-22.371 49.814-49.869 49.814-27.499 0-49.871-22.347-49.871-49.814V244.513a5.001 5.001 0 0 0-4.392-4.963c-35.504-4.357-65.952-30.003-76.224-64.228L40.255 88.244c-9.492-31.623 12.15-65.28 44.754-69.963a24.042 24.042 0 0 0 .4 14.113C61.935 36.719 46.758 61.312 53.632 84.21l26.136 87.077c9.712 32.357 40.234 54.957 74.224 54.957s64.512-22.6 74.224-54.957l26.137-87.077c6.899-22.984-8.428-47.653-32.002-51.862a24.084 24.084 0 0 0 .811-14.04c32.51 4.783 54.038 38.381 44.566 69.936l-26.136 87.078c-10.272 34.223-40.719 59.87-76.224 64.228a5.002 5.002 0 0 0-4.392 4.963v163.673c0 19.745 16.105 35.81 35.902 35.81 19.796 0 35.901-16.064 35.901-35.81v-47.663c0-26.512 21.593-48.081 48.134-48.081s48.134 21.569 48.134 48.081v37.778c0 17.571 14.333 31.866 31.951 31.866s31.951-14.295 31.951-31.866V286.144a29.715 29.715 0 0 0 13.969 0v112.157zm-6.984-121.319c-10.757 0-19.51-8.688-19.51-19.368 0-10.679 8.752-19.367 19.51-19.367s19.509 8.688 19.509 19.367c-.001 10.68-8.752 19.368-19.509 19.368zm30.065-37.673c0 2.242-1.59 4.419-3.674 5.186-4.851-9.624-14.855-16.248-26.391-16.248-3.743 0-7.322.704-10.62 1.975-5.978-6.777-9.545-15.609-9.545-25.185v-12.946l16.025 14.181a5 5 0 0 0 7.059-.431 4.998 4.998 0 0 0-.431-7.058l-22.654-20.047v-12.493c0-2.703 1.974-5.007 4.694-5.477 23.178-3.995 45.536 14.074 45.536 37.782v40.761z"></path>
</svg>
